<svg width="440" height="755" viewBox="0 0 440 755" fill="none" xmlns="http://www.w3.org/2000/svg">
<path d="M13.5005 521L130 303M13.5005 521L145 725C247.259 648.308 283.525 659.582 319.5 753.5C300.838 650.506 299.411 593.183 319.5 492M13.5005 521C13.5005 521 111.864 603.336 176 582.5C240.136 561.664 315.665 485.997 319.5 492M130 303C130 303 33.5005 331 13.5005 268C-6.49954 205 13.5005 27 13.5005 27L217.5 12M130 303C186.23 192.603 202.131 128.408 217.5 12M217.5 12C311.586 -3.80421 360.096 2.71259 435 56.5C379.768 227.142 355.572 322.434 319.5 492" stroke="#1E1E1E" stroke-width="8"/>
</svg>
